<svg xmlns="http://www.w3.org/2000/svg" width="50" height="114" viewBox="0 0 50 114" fill="none">
  <path d="M0 25.2575C5.98294 22.6407 12.3932 18.0898 19.2308 11.6048C22.5424 8.41919 25.641 5.68866 28.5256 3.41317C31.4103 1.13769 34.9359 0 39.1026 0C43.3758 0 47.0089 0.796375 50 2.38922C47.4359 24.006 46.1538 44.2575 46.1538 63.1437C46.1538 82.0296 47.1154 98.2994 49.0385 111.952C46.0473 113.317 42.5745 114 38.6218 114C34.6691 114 31.464 112.635 29.0064 109.904C26.5488 107.174 25.3205 103.533 25.3205 98.982C25.3205 94.317 26.1755 84.5895 27.8846 69.7994C29.5937 55.0093 30.5025 38.9671 30.609 21.6737C29.4334 22.8113 27.4576 25.0868 24.6795 28.5C18.4832 36.1227 13.6218 39.9341 10.0962 39.9341C6.67732 39.9341 4.11321 38.5689 2.40384 35.8383C0.801278 33.1078 0 29.5809 0 25.2575Z" fill="white"/>
</svg>